<svg xmlns="http://www.w3.org/2000/svg" viewBox="0 0 800 800" width="800" height="800" role="img" aria-label="Tata Sampann Toor Dal 1kg">
<defs><linearGradient id="g" x1="0" y1="0" x2="1" y2="1">
<stop offset="0%" stop-color="#f7fee7"/><stop offset="100%" stop-color="#d9f99d"/></linearGradient></defs>
<rect width="800" height="800" fill="url(#g)"/>
<circle cx="400" cy="330" r="196" fill="#ffffff" opacity="0.62"/>
<g transform="translate(400,330) scale(11) translate(-12,-12)">
<path d="M12 21V8M12 8c0-3 2-5 4-5 0 3-2 5-4 5zm0 0c0-3-2-5-4-5 0 3 2 5 4 5zM12 14c0-3 2-5 4-5 0 3-2 5-4 5zm0 0c0-3-2-5-4-5 0 3 2 5 4 5z" fill="none" stroke="#65a30d" stroke-width="1.5"
      stroke-linecap="round" stroke-linejoin="round"/></g>
<text x="400" y="584" font-family="Inter,Segoe UI,sans-serif" font-size="34" font-weight="700" fill="#0f172a" text-anchor="middle">Tata Sampann Toor Dal</text><text x="400" y="630" font-family="Inter,Segoe UI,sans-serif" font-size="34" font-weight="700" fill="#0f172a" text-anchor="middle">1kg</text>
<text x="400" y="690" font-family="Inter,Segoe UI,sans-serif" font-size="26"
      fill="#65a30d" font-weight="600" text-anchor="middle">Tata Sampann</text>
<text x="760" y="56" font-family="Inter,Segoe UI,sans-serif" font-size="24" fill="#65a30d"
      opacity="0.75" text-anchor="end">2 / 4</text>
</svg>